# xmcd
# 
# Track frame offsets:
#     150
#     21357
#     42536
#     62172
#     82275
#     103467
#     124643
#     144284
# 
# Disc length: 2192
# 
# Revision: 3
# Processed by: cddbd v1.5.2PL0 Copyright (c) Steve Scherf et al.
# Submitted via: fre:ac v1.0.27
# 
DISCID=76088e08
DTITLE=AKB48 - 唇にBe My Babe (Type A)
DYEAR=2015
DGENRE=J-Pop
TTITLE0=唇にBe My Babe
TTITLE1=365日の紙飛行機
TTITLE2=君を君を君を・・・
TTITLE3=やさしいplace
TTITLE4=唇にBe My Babe(off vocal ver.)
TTITLE5=365日の紙飛行機(off vocal ver.)
TTITLE6=君を君を君を・・・(off vocal ver.)
TTITLE7=やさしいplace(off vocal ver.)
EXTD=YEAR: 2015
EXTT0=
EXTT1=
EXTT2=
EXTT3=
EXTT4=
EXTT5=
EXTT6=
EXTT7=
PLAYORDER=
